<?xml version="1.0" encoding="UTF-8" standalone="no"?><!DOCTYPE svg PUBLIC "-//W3C//DTD SVG 1.1//EN" "http://www.w3.org/Graphics/SVG/1.1/DTD/svg11.dtd"><svg width="100%" height="100%" viewBox="0 0 198 99" version="1.1" xmlns="http://www.w3.org/2000/svg" xmlns:xlink="http://www.w3.org/1999/xlink" xml:space="preserve" xmlns:serif="http://www.serif.com/" style="fill-rule:evenodd;clip-rule:evenodd;stroke-miterlimit:10;"><g id="g5"><circle id="circle7" cx="16.5" cy="16.609" r="12" style="fill:#fc0;"/><path id="polyline9" d="M21.333,12.745l-5.665,7.826l-4.013,-3.913" style="fill:none;stroke:#655100;stroke-width:2.3px;"/></g><g id="g11"><circle id="circle13" cx="16.5" cy="49.465" r="12" style="fill:#fff;"/><path id="polyline15" d="M21.333,45.601l-5.665,7.826l-4.013,-3.913" style="fill:none;stroke:#3e3d06;stroke-width:2.3px;"/></g><g id="g17"><circle id="circle19" cx="16.5" cy="82.477" r="12" style="fill:#949494;"/><path id="polyline21" d="M21.333,78.612l-5.665,7.826l-4.013,-3.913" style="fill:none;stroke:#3e3d06;stroke-width:2.3px;"/></g><g id="g23"><circle id="circle25" cx="49.5" cy="16.609" r="12" style="fill:#fc0;"/><path id="polygon27" d="M45.151,15.313l3.895,0l0,-3.783l5.394,5.345l-5.37,5.37l0,-3.682l-3.919,-0.024l0,-3.226Z" style="fill:#655100;fill-rule:nonzero;"/></g><g id="g29"><circle id="circle31" cx="49.5" cy="49.465" r="12" style="fill:#fff;"/><path id="polygon33" d="M45.151,48.169l3.895,0l0,-3.783l5.394,5.345l-5.37,5.37l0,-3.682l-3.919,-0.025l0,-3.225Z" style="fill:#3e3d06;fill-rule:nonzero;"/></g><g id="g35"><circle id="circle37" cx="49.5" cy="82.477" r="12" style="fill:#949494;"/><path id="polygon39" d="M45.151,81.18l3.895,0l0,-3.783l5.394,5.346l-5.37,5.37l0,-3.683l-3.919,-0.024l0,-3.226Z" style="fill:#3e3d06;fill-rule:nonzero;"/></g><g id="g41"><rect id="rect43" x="105" y="6.109" width="21" height="21" style="fill:#fc0;"/><path id="polygon45" d="M113.896,19.083l0,-3.967l-3.854,0l5.446,-5.495l5.47,5.47l-3.751,0l-0.025,3.992l-3.286,0Z" style="fill:#655100;fill-rule:nonzero;"/><rect id="rect47" x="109.967" y="22.193" width="1" height="1" style="fill:#655100;"/><rect id="rect49" x="111.974" y="22.193" width="1" height="1" style="fill:#655100;"/><rect id="rect51" x="113.973" y="22.193" width="1" height="1" style="fill:#655100;"/><rect id="rect53" x="115.981" y="22.193" width="1" height="1" style="fill:#655100;"/><rect id="rect55" x="117.98" y="22.193" width="1" height="1" style="fill:#655100;"/><rect id="rect57" x="119.987" y="22.193" width="1" height="1" style="fill:#655100;"/></g><g id="g59"><rect id="rect61" x="138" y="6.109" width="21" height="21" style="fill:#fc0;"/><path id="polygon63" d="M150.104,9.621l0,3.967l3.854,0l-5.446,5.495l-5.47,-5.471l3.751,0.001l0.025,-3.992l3.286,0Z" style="fill:#655100;fill-rule:nonzero;"/><rect id="rect65" x="142.966" y="22.193" width="1" height="1" style="fill:#655100;"/><rect id="rect67" x="144.974" y="22.193" width="1" height="1" style="fill:#655100;"/><rect id="rect69" x="146.973" y="22.193" width="1" height="1" style="fill:#655100;"/><rect id="rect71" x="148.98" y="22.193" width="1" height="1" style="fill:#655100;"/><rect id="rect73" x="150.98" y="22.193" width="1" height="1" style="fill:#655100;"/><rect id="rect75" x="152.987" y="22.193" width="1" height="1" style="fill:#655100;"/></g><g id="g77"><rect id="rect79" x="105" y="38.965" width="21" height="21" style="fill:#fff;"/><path id="polygon81" d="M113.896,51.939l0,-3.968l-3.854,0l5.446,-5.495l5.47,5.471l-3.751,0l-0.025,3.992l-3.286,0Z" style="fill:#3e3d06;fill-rule:nonzero;"/><rect id="rect83" x="109.967" y="55.049" width="1" height="1" style="fill:#3e3d06;"/><rect id="rect85" x="111.974" y="55.049" width="1" height="1" style="fill:#3e3d06;"/><rect id="rect87" x="113.973" y="55.049" width="1" height="1" style="fill:#3e3d06;"/><rect id="rect89" x="115.981" y="55.049" width="1" height="1" style="fill:#3e3d06;"/><rect id="rect91" x="117.98" y="55.049" width="1" height="1" style="fill:#3e3d06;"/><rect id="rect93" x="119.987" y="55.049" width="1" height="1" style="fill:#3e3d06;"/></g><g id="g95"><rect id="rect97" x="138" y="38.965" width="21" height="21" style="fill:#fff;"/><path id="polygon99" d="M150.104,42.476l0,3.968l3.854,0l-5.446,5.495l-5.47,-5.471l3.751,0l0.025,-3.991l3.286,-0.001Z" style="fill:#3e3d06;fill-rule:nonzero;"/><rect id="rect101" x="142.966" y="55.049" width="1" height="1" style="fill:#3e3d06;"/><rect id="rect103" x="144.974" y="55.049" width="1" height="1" style="fill:#3e3d06;"/><rect id="rect105" x="146.973" y="55.049" width="1" height="1" style="fill:#3e3d06;"/><rect id="rect107" x="148.98" y="55.049" width="1" height="1" style="fill:#3e3d06;"/><rect id="rect109" x="150.98" y="55.049" width="1" height="1" style="fill:#3e3d06;"/><rect id="rect111" x="152.987" y="55.049" width="1" height="1" style="fill:#3e3d06;"/></g><g id="g113"><rect id="rect115" x="105" y="71.977" width="21" height="21" style="fill:#949494;"/><path id="polygon117" d="M113.896,84.95l0,-3.967l-3.854,0l5.446,-5.495l5.47,5.471l-3.751,-0.001l-0.025,3.992l-3.286,0Z" style="fill:#3e3d06;fill-rule:nonzero;"/><rect id="rect119" x="109.967" y="88.061" width="1" height="1" style="fill:#3e3d06;"/><rect id="rect121" x="111.974" y="88.061" width="1" height="1" style="fill:#3e3d06;"/><rect id="rect123" x="113.973" y="88.061" width="1" height="1" style="fill:#3e3d06;"/><rect id="rect125" x="115.981" y="88.061" width="1" height="1" style="fill:#3e3d06;"/><rect id="rect127" x="117.98" y="88.061" width="1" height="1" style="fill:#3e3d06;"/><rect id="rect129" x="119.987" y="88.061" width="1" height="1" style="fill:#3e3d06;"/></g><g id="g131"><rect id="rect133" x="138" y="71.977" width="21" height="21" style="fill:#949494;"/><path id="polygon135" d="M150.104,75.488l0,3.967l3.854,0l-5.446,5.495l-5.47,-5.47l3.751,0l0.025,-3.992l3.286,0Z" style="fill:#3e3d06;fill-rule:nonzero;"/><rect id="rect137" x="142.966" y="88.061" width="1" height="1" style="fill:#3e3d06;"/><rect id="rect139" x="144.974" y="88.061" width="1" height="1" style="fill:#3e3d06;"/><rect id="rect141" x="146.973" y="88.061" width="1" height="1" style="fill:#3e3d06;"/><rect id="rect143" x="148.98" y="88.061" width="1" height="1" style="fill:#3e3d06;"/><rect id="rect145" x="150.98" y="88.061" width="1" height="1" style="fill:#3e3d06;"/><rect id="rect147" x="152.987" y="88.061" width="1" height="1" style="fill:#3e3d06;"/></g><g id="g149"><rect id="rect153" x="72" y="6.109" width="21" height="21" style="fill:#fc0;"/><path id="polygon155" d="M83.037,10.094l1.001,0l3.98,3.985l0,0.978l-0.976,0l-4.005,0l0,-4.963Z" style="fill:#655100;fill-rule:nonzero;"/><path id="polygon157" d="M78.001,11.093l0,11.004l9.041,0l0,-7.227l0.976,0l0,8.264l-11.022,0l0,-13.04l6.163,0l0.006,0.999l-5.164,0Z" style="fill:#655100;fill-rule:nonzero;"/><rect id="rect159" x="78.996" y="12.111" width="0.995" height="0.996" style="fill:#655100;"/><rect id="rect161" x="80.992" y="12.111" width="0.995" height="0.996" style="fill:#655100;"/><rect id="rect163" x="78.996" y="14.103" width="0.995" height="0.996" style="fill:#655100;"/><rect id="rect165" x="80.992" y="14.103" width="0.995" height="0.996" style="fill:#655100;"/><rect id="rect167" x="78.996" y="16.116" width="0.995" height="0.996" style="fill:#655100;"/><rect id="rect169" x="80.992" y="16.116" width="0.995" height="0.996" style="fill:#655100;"/><rect id="rect171" x="83" y="16.116" width="0.995" height="0.996" style="fill:#655100;"/><rect id="rect173" x="84.997" y="16.116" width="0.995" height="0.996" style="fill:#655100;"/><rect id="rect175" x="78.996" y="18.118" width="0.995" height="0.996" style="fill:#655100;"/><rect id="rect177" x="80.992" y="18.118" width="0.995" height="0.996" style="fill:#655100;"/><rect id="rect179" x="78.996" y="20.132" width="0.995" height="0.996" style="fill:#655100;"/><rect id="rect181" x="80.992" y="20.132" width="0.995" height="0.996" style="fill:#655100;"/><rect id="rect183" x="83" y="18.118" width="0.995" height="0.996" style="fill:#655100;"/><rect id="rect185" x="84.997" y="18.118" width="0.995" height="0.996" style="fill:#655100;"/><rect id="rect187" x="83" y="20.132" width="0.995" height="0.996" style="fill:#655100;"/><rect id="rect189" x="84.997" y="20.132" width="0.995" height="0.996" style="fill:#655100;"/></g><g id="g191"><rect id="rect195" x="72" y="38.965" width="21" height="21" style="fill:#fff;"/><path id="polygon197" d="M83.037,42.95l1.001,0l3.98,3.985l0,0.977l-0.976,0l-4.005,0l0,-4.962Z" style="fill:#3e3d06;fill-rule:nonzero;"/><path id="polygon199" d="M78.001,43.949l0,11.004l9.041,0l0,-7.227l0.976,0l0,8.264l-11.022,0l0,-13.04l6.187,0l0.013,1.001l-5.195,-0.002Z" style="fill:#3e3d06;fill-rule:nonzero;"/><rect id="rect201" x="78.996" y="44.967" width="0.995" height="0.996" style="fill:#3e3d06;"/><rect id="rect203" x="80.992" y="44.967" width="0.995" height="0.996" style="fill:#3e3d06;"/><rect id="rect205" x="78.996" y="46.959" width="0.995" height="0.996" style="fill:#3e3d06;"/><rect id="rect207" x="80.992" y="46.959" width="0.995" height="0.996" style="fill:#3e3d06;"/><rect id="rect209" x="78.996" y="48.972" width="0.995" height="0.996" style="fill:#3e3d06;"/><rect id="rect211" x="80.992" y="48.972" width="0.995" height="0.996" style="fill:#3e3d06;"/><rect id="rect213" x="83" y="48.972" width="0.995" height="0.996" style="fill:#3e3d06;"/><rect id="rect215" x="84.997" y="48.972" width="0.995" height="0.996" style="fill:#3e3d06;"/><rect id="rect217" x="78.996" y="50.974" width="0.995" height="0.996" style="fill:#3e3d06;"/><rect id="rect219" x="80.992" y="50.974" width="0.995" height="0.996" style="fill:#3e3d06;"/><rect id="rect221" x="78.996" y="52.987" width="0.995" height="0.996" style="fill:#3e3d06;"/><rect id="rect223" x="80.992" y="52.987" width="0.995" height="0.996" style="fill:#3e3d06;"/><rect id="rect225" x="83" y="50.974" width="0.995" height="0.996" style="fill:#3e3d06;"/><rect id="rect227" x="84.997" y="50.974" width="0.995" height="0.996" style="fill:#3e3d06;"/><rect id="rect229" x="83" y="52.987" width="0.995" height="0.996" style="fill:#3e3d06;"/><rect id="rect231" x="84.997" y="52.987" width="0.995" height="0.996" style="fill:#3e3d06;"/></g><g id="g233"><rect id="rect237" x="72" y="71.977" width="21" height="21" style="fill:#949494;"/><path id="polygon239" d="M83.037,75.961l1.001,0l3.98,3.985l0,0.978l-0.976,0l-4.005,0l0,-4.963Z" style="fill:#3e3d06;fill-rule:nonzero;"/><path id="polygon241" d="M78.001,76.961l0,11.004l9.041,0l0,-7.227l0.976,0l0,8.264l-11.022,0l0,-13.041l6.187,0l0.013,1.002l-5.195,-0.002Z" style="fill:#3e3d06;fill-rule:nonzero;"/><rect id="rect243" x="78.996" y="77.978" width="0.995" height="0.996" style="fill:#3e3d06;"/><rect id="rect245" x="80.992" y="77.978" width="0.995" height="0.996" style="fill:#3e3d06;"/><rect id="rect247" x="78.996" y="79.97" width="0.995" height="0.996" style="fill:#3e3d06;"/><rect id="rect249" x="80.992" y="79.97" width="0.995" height="0.996" style="fill:#3e3d06;"/><rect id="rect251" x="78.996" y="81.984" width="0.995" height="0.996" style="fill:#3e3d06;"/><rect id="rect253" x="80.992" y="81.984" width="0.995" height="0.996" style="fill:#3e3d06;"/><rect id="rect255" x="83" y="81.984" width="0.995" height="0.996" style="fill:#3e3d06;"/><rect id="rect257" x="84.997" y="81.984" width="0.995" height="0.996" style="fill:#3e3d06;"/><rect id="rect259" x="78.996" y="83.986" width="0.995" height="0.996" style="fill:#3e3d06;"/><rect id="rect261" x="80.992" y="83.986" width="0.995" height="0.996" style="fill:#3e3d06;"/><rect id="rect263" x="78.996" y="85.999" width="0.995" height="0.996" style="fill:#3e3d06;"/><rect id="rect265" x="80.992" y="85.999" width="0.995" height="0.996" style="fill:#3e3d06;"/><rect id="rect267" x="83" y="83.986" width="0.995" height="0.996" style="fill:#3e3d06;"/><rect id="rect269" x="84.997" y="83.986" width="0.995" height="0.996" style="fill:#3e3d06;"/><rect id="rect271" x="83" y="85.999" width="0.995" height="0.996" style="fill:#3e3d06;"/><rect id="rect273" x="84.997" y="85.999" width="0.995" height="0.996" style="fill:#3e3d06;"/></g><g id="g275"><rect id="rect277" x="171" y="6.109" width="21" height="21" style="fill:#fc0;"/><rect id="rect279" x="186.991" y="16.101" width="0.999" height="0.998" style="fill:#655100;"/><rect id="rect281" x="188.997" y="16.101" width="0.999" height="0.998" style="fill:#655100;"/><rect id="rect283" x="174.005" y="16.101" width="0.999" height="0.998" style="fill:#655100;"/><circle id="circle285" cx="180.975" cy="16.101" r="4.09" style="fill:none;stroke:#655100;stroke-width:1.95px;"/><path id="rect287" d="M178.927,20.086l-1.853,-1.936l-3.195,3.058l1.853,1.936l3.195,-3.058Z" style="fill:#655100;"/><rect id="rect289" x="179.961" y="15.103" width="2.028" height="1.996" style="fill:#655100;"/></g><g id="g291"><rect id="rect293" x="171" y="38.965" width="21" height="21" style="fill:#fff;"/><rect id="rect295" x="186.991" y="48.957" width="0.999" height="0.998" style="fill:#3e3d06;"/><rect id="rect297" x="188.997" y="48.957" width="0.999" height="0.998" style="fill:#3e3d06;"/><rect id="rect299" x="174.005" y="48.957" width="0.999" height="0.998" style="fill:#3e3d06;"/><circle id="circle301" cx="180.975" cy="48.957" r="4.09" style="fill:none;stroke:#3e3d06;stroke-width:1.95px;"/><path id="rect303" d="M178.925,52.941l-1.853,-1.936l-3.195,3.058l1.853,1.936l3.195,-3.058Z" style="fill:#3e3d06;"/><rect id="rect305" x="179.961" y="47.959" width="2.028" height="1.996" style="fill:#3e3d06;"/></g><g id="g307"><rect id="rect309" x="171" y="71.977" width="21" height="21" style="fill:#949494;"/><rect id="rect311" x="186.991" y="81.969" width="0.999" height="0.998" style="fill:#3e3d06;"/><rect id="rect313" x="188.997" y="81.969" width="0.999" height="0.998" style="fill:#3e3d06;"/><rect id="rect315" x="174.005" y="81.969" width="0.999" height="0.998" style="fill:#3e3d06;"/><circle id="circle317" cx="180.975" cy="81.969" r="4.09" style="fill:none;stroke:#3e3d06;stroke-width:1.95px;"/><path id="rect319" d="M178.924,85.952l-1.854,-1.936l-3.195,3.059l1.854,1.936l3.195,-3.059Z" style="fill:#3e3d06;"/><rect id="rect321" x="179.961" y="80.97" width="2.028" height="1.996" style="fill:#3e3d06;"/></g></svg>