<?xml version="1.0" encoding="UTF-8" standalone="no"?><!DOCTYPE svg PUBLIC "-//W3C//DTD SVG 1.1//EN" "http://www.w3.org/Graphics/SVG/1.1/DTD/svg11.dtd"><svg width="100%" height="100%" viewBox="0 0 48 66" version="1.1" xmlns="http://www.w3.org/2000/svg" xmlns:xlink="http://www.w3.org/1999/xlink" xml:space="preserve" xmlns:serif="http://www.serif.com/" style="fill-rule:evenodd;clip-rule:evenodd;stroke-miterlimit:10;"><g><path d="M39.903,66l-32,0c-4.4,0 -8,-3.6 -8,-8l0,-26.276c0,-4.4 3.6,-8 8,-8l32,0c4.4,0 8,3.6 8,8l0,26.276c0,4.4 -3.6,8 -8,8Z" style="fill:#424242;fill-rule:nonzero;"/><path d="M21.811,44.767l4,0l2.063,10.16l-8,0l1.937,-10.16Z" style="fill:#fff;fill-rule:nonzero;"/><ellipse cx="23.874" cy="40.43" rx="5.469" ry="5.503" style="fill:#fff;"/><path d="M10.782,24.445l0,-10.785c0,0 0.13,-11.112 13.121,-11.112c12.991,0 12.926,10.948 12.926,10.948l0,10.948" style="fill:none;stroke:#424242;stroke-width:5.02px;"/></g></svg>