<?xml version="1.0" encoding="UTF-8" standalone="no"?><!DOCTYPE svg PUBLIC "-//W3C//DTD SVG 1.1//EN" "http://www.w3.org/Graphics/SVG/1.1/DTD/svg11.dtd"><svg width="100%" height="100%" viewBox="0 0 20 20" version="1.1" xmlns="http://www.w3.org/2000/svg" xmlns:xlink="http://www.w3.org/1999/xlink" xml:space="preserve" xmlns:serif="http://www.serif.com/" style="fill-rule:evenodd;clip-rule:evenodd;stroke-linejoin:round;stroke-miterlimit:1.41421;"><rect x="0" y="0" width="20" height="20" style="fill:#404040;"/><rect x="7.987" y="18" width="0.992" height="0.992" style="fill:#999;"/><rect x="8.979" y="17.008" width="0.992" height="0.992" style="fill:#999;"/><rect x="10" y="16.016" width="0.992" height="0.992" style="fill:#999;"/><rect x="10.992" y="15.024" width="0.992" height="0.992" style="fill:#999;"/><rect x="11.984" y="14.032" width="0.992" height="0.992" style="fill:#999;"/><rect x="12.976" y="12.985" width="0.992" height="0.992" style="fill:#999;"/><rect x="13.968" y="11.993" width="0.992" height="0.992" style="fill:#999;"/><rect x="15.038" y="11.001" width="0.992" height="0.992" style="fill:#999;"/><rect x="10.992" y="17.991" width="0.992" height="0.992" style="fill:#999;"/><rect x="11.984" y="16.999" width="0.992" height="0.992" style="fill:#999;"/><rect x="13.005" y="16.007" width="0.992" height="0.992" style="fill:#999;"/><rect x="13.997" y="15.015" width="0.992" height="0.992" style="fill:#999;"/><rect x="14.989" y="14.023" width="0.992" height="0.992" style="fill:#999;"/><rect x="14.032" y="18" width="0.992" height="0.992" style="fill:#999;"/><rect x="15.024" y="17.008" width="0.992" height="0.992" style="fill:#999;"/><rect x="16.973" y="18" width="0.992" height="0.992" style="fill:#999;"/><rect x="17.965" y="17.008" width="0.992" height="0.992" style="fill:#999;"/><rect x="16.045" y="16.016" width="0.992" height="0.992" style="fill:#999;"/><rect x="17.037" y="15.024" width="0.992" height="0.992" style="fill:#999;"/><rect x="18.029" y="14.032" width="0.992" height="0.992" style="fill:#999;"/><rect x="15.981" y="12.976" width="0.992" height="0.992" style="fill:#999;"/><rect x="16.973" y="11.984" width="0.992" height="0.992" style="fill:#999;"/><rect x="18.043" y="10.992" width="0.992" height="0.992" style="fill:#999;"/><rect x="16.03" y="10" width="0.992" height="0.992" style="fill:#999;"/><rect x="17.022" y="9.008" width="0.992" height="0.992" style="fill:#999;"/><rect x="18.014" y="8.016" width="0.992" height="0.992" style="fill:#999;"/></svg>